<svg id="Layer_1" data-name="Layer 1" xmlns="http://www.w3.org/2000/svg" viewBox="0 0 1536 2242"><defs><style>.cls-1{fill:#1d174f;}</style></defs><title>climb background</title><path class="cls-1" d="M0,0V2242H1536V0ZM881.42,860.53c-12.7,33.06-31.52,63.51-53.93,90.85-23.52,28.69-52.14,51.14-79,76.35-55.63,52.11-102.09,118-93.58,197.9,3.63,34.12,18.55,64,39.9,90.49,20.89,25.86,45,48.86,65.6,75,11.59,14.75,21.89,30.2,26.93,48.48,4.63,16.82,4.72,34.38,1.82,51.51-6.79,40-28.25,75.25-43.9,112.05-13.9,32.7-31.71,66.58-31.27,103,.44,36.91,18,71.92,35,103.79s35.64,63,49.73,96.4c10.68,25.29,21.53,55.95,14.07,83.59-7.41,27.41-29.38,49-49.47,67.75-22,20.54-47.15,39.66-63.53,65.27-2.42,3.79-8.47.28-6-3.53,7.28-11.38,16.36-21.42,25.95-30.89,21.89-21.61,46.68-40.52,66.24-64.41,9.15-11.18,17.22-23.84,20.6-38.05s1-29.38-2.54-43.29c-17.55-69-67.16-124.56-89-191.88-10.28-31.64-9.86-62.69.84-94.12,12.62-37.07,30.78-72,46.72-107.68,16.2-36.26,30-77.29,15.2-116.39-13-34.33-43.61-61.93-67.84-88.59-19.8-21.79-38.94-44.63-50.39-72.07-13.16-31.55-15.74-67.56-9.57-101,13.31-72.15,68-127.65,121.8-173.34C826.65,951,873.36,888.24,886.88,816c6.79-36.25,3.64-74.18-11.4-108-14.81-33.33-42.64-57.46-59.6-89.34-7.58-14.25-12.28-30-11.87-46.21.17-6.61.45-13.67,3.45-19.69,2.62-5.28,6.81-9.6,10-14.5,10.77-16.47,3-30.05-7.24-44.16-10.44-14.3-20.93-27.2-28.42-43.41-33.4-72.27-17.05-151.78-29.3-228l-.13-.06c-14.58-4.07-24.3-16.7-27-31.51-1.23-6.75-1.58-14.43.3-21.1,1.75-6.2,6.32-9.18,12.49-10,16-2.16,34.17-3.24,50,.72,6.74,1.69,14.09,5.81,14.69,13.55.56,7.25-5.33,12-11.43,14.4-4.1,1.6-8.56,2.27-11.35,6-2.26,3.05-3.17,6.88-5.12,10.11-3.79,6.27-9.95,10.92-15.75,15.41A459.89,459.89,0,0,1,764.69,278c1.4,38.59-.71,77.61,6.37,115.78a226.06,226.06,0,0,0,19.77,59.59c7.61,15.26,18.92,27.57,28.52,41.53,7.95,11.57,13.8,23.27,9,37.38-2.19,6.39-6.24,11.51-10.17,16.9-4.53,6.21-6.26,11.16-6.88,18.9-3.07,38.61,24.07,68,46,96.4C901.38,721.69,907,794,881.42,860.53Z"/><circle class="cls-1" cx="755.63" cy="183.85" r="4.69"/></svg>