<svg id="Layer_1" data-name="Layer 1" xmlns="http://www.w3.org/2000/svg" viewBox="0 0 1536 2242"><defs><style>.cls-1{fill:#1d174f;}</style></defs><title>Untitled-1</title><path class="cls-1" d="M0,0V2242H1536V0ZM786,886.42a638.68,638.68,0,0,1-10,69.39c-4.89,23.9-12.36,46.85-20.18,69.93-18.35,54.17-37.91,108.15-50.91,163.94-6.37,27.35-11.48,55.19-11.53,83.35,0,27.41,4.06,54.59,10.15,81.26,11.84,51.86,30.87,101.83,41.35,154,23,114.59-8.39,229.22-32,340.92-1.33,6.3-11,3.62-9.64-2.66,3.07-14.54,6.26-29,9.45-43.55,12.62-57.34,25.27-114.94,29-173.67,1.89-29.34,1.85-59.06-1.62-88.29-3.13-26.43-9.5-52.41-16.63-78-14.29-51.25-32.12-101.83-38.11-155-6.19-54.9,5.31-108.66,20.38-161.25,15.62-54.54,37.19-107.23,52.81-161.73,13-45.34,18.08-92.83,20.15-139.83a1114.65,1114.65,0,0,0-4-150.9c-4.41-48-10.95-95.81-26.49-141.59-9-26.49-19.38-52.64-25.42-80-5.71-25.87-6.27-52.32-2.75-78.55,6.57-48.95,29.12-93.56,44.7-139.94,2-6.08,11.7-3.46,9.64,2.66-4.23,12.61-8.84,25.09-13.61,37.51-8.47,22.09-17.42,44.07-23.75,66.89a248.77,248.77,0,0,0-9,76.72c2.29,56.57,33.15,107.44,43.8,162.37,8.66,44.7,13.42,90.28,16,135.7C790.69,786.15,790.59,836.49,786,886.42Z"/></svg>